<?xml version="1.0" encoding="UTF-8" standalone="no"?>
<!DOCTYPE svg PUBLIC "-//W3C//DTD SVG 1.1//EN"
 "http://www.w3.org/Graphics/SVG/1.1/DTD/svg11.dtd">
<!-- Generated by graphviz version 2.43.0 (0)
 -->
<!-- Title: taskset&#45;0 Pages: 1 -->
<svg width="638pt" height="404pt"
 viewBox="0.00 0.00 638.00 404.00" xmlns="http://www.w3.org/2000/svg" xmlns:xlink="http://www.w3.org/1999/xlink">
<g id="graph0" class="graph" transform="scale(1 1) rotate(0) translate(4 400)">
<title>taskset&#45;0</title>
<polygon fill="white" stroke="transparent" points="-4,4 -4,-400 634,-400 634,4 -4,4"/>
<!-- T0 -->
<g id="node1" class="node">
<title>T0</title>
<ellipse fill="none" stroke="black" cx="27" cy="-378" rx="27" ry="18"/>
<text text-anchor="middle" x="27" y="-374.3" font-family="Ubuntu" font-size="14.00">T0</text>
</g>
<!-- T5 -->
<g id="node2" class="node">
<title>T5</title>
<ellipse fill="none" stroke="black" cx="99" cy="-306" rx="27" ry="18"/>
<text text-anchor="middle" x="99" y="-302.3" font-family="Ubuntu" font-size="14.00">T5</text>
</g>
<!-- T0&#45;&gt;T5 -->
<g id="edge1" class="edge">
<title>T0&#45;&gt;T5</title>
<path fill="none" stroke="black" d="M41.57,-362.83C51.75,-352.94 65.52,-339.55 77.03,-328.36"/>
<polygon fill="black" stroke="black" points="79.47,-330.87 84.2,-321.38 74.59,-325.85 79.47,-330.87"/>
</g>
<!-- T19 -->
<g id="node8" class="node">
<title>T19</title>
<ellipse fill="none" stroke="black" cx="63" cy="-234" rx="27" ry="18"/>
<text text-anchor="middle" x="63" y="-230.3" font-family="Ubuntu" font-size="14.00">T19</text>
</g>
<!-- T5&#45;&gt;T19 -->
<g id="edge8" class="edge">
<title>T5&#45;&gt;T19</title>
<path fill="none" stroke="black" d="M90.65,-288.76C86.29,-280.28 80.85,-269.71 75.96,-260.2"/>
<polygon fill="black" stroke="black" points="78.99,-258.44 71.3,-251.15 72.77,-261.64 78.99,-258.44"/>
</g>
<!-- T1 -->
<g id="node3" class="node">
<title>T1</title>
<ellipse fill="none" stroke="black" cx="99" cy="-378" rx="27" ry="18"/>
<text text-anchor="middle" x="99" y="-374.3" font-family="Ubuntu" font-size="14.00">T1</text>
</g>
<!-- T1&#45;&gt;T5 -->
<g id="edge2" class="edge">
<title>T1&#45;&gt;T5</title>
<path fill="none" stroke="black" d="M99,-359.7C99,-351.98 99,-342.71 99,-334.11"/>
<polygon fill="black" stroke="black" points="102.5,-334.1 99,-324.1 95.5,-334.1 102.5,-334.1"/>
</g>
<!-- T17 -->
<g id="node4" class="node">
<title>T17</title>
<ellipse fill="none" stroke="black" cx="189" cy="-306" rx="27" ry="18"/>
<text text-anchor="middle" x="189" y="-302.3" font-family="Ubuntu" font-size="14.00">T17</text>
</g>
<!-- T1&#45;&gt;T17 -->
<g id="edge3" class="edge">
<title>T1&#45;&gt;T17</title>
<path fill="none" stroke="black" d="M115.93,-363.83C129.5,-353.27 148.76,-338.3 164.09,-326.37"/>
<polygon fill="black" stroke="black" points="166.4,-329.01 172.15,-320.11 162.11,-323.48 166.4,-329.01"/>
</g>
<!-- T13 -->
<g id="node18" class="node">
<title>T13</title>
<ellipse fill="none" stroke="black" cx="207" cy="-234" rx="27" ry="18"/>
<text text-anchor="middle" x="207" y="-230.3" font-family="Ubuntu" font-size="14.00">T13</text>
</g>
<!-- T17&#45;&gt;T13 -->
<g id="edge18" class="edge">
<title>T17&#45;&gt;T13</title>
<path fill="none" stroke="black" d="M193.36,-288.05C195.39,-280.14 197.86,-270.54 200.14,-261.69"/>
<polygon fill="black" stroke="black" points="203.58,-262.35 202.68,-251.79 196.8,-260.6 203.58,-262.35"/>
</g>
<!-- T2 -->
<g id="node5" class="node">
<title>T2</title>
<ellipse fill="none" stroke="black" cx="315" cy="-378" rx="27" ry="18"/>
<text text-anchor="middle" x="315" y="-374.3" font-family="Ubuntu" font-size="14.00">T2</text>
</g>
<!-- T3 -->
<g id="node6" class="node">
<title>T3</title>
<ellipse fill="none" stroke="black" cx="171" cy="-378" rx="27" ry="18"/>
<text text-anchor="middle" x="171" y="-374.3" font-family="Ubuntu" font-size="14.00">T3</text>
</g>
<!-- T3&#45;&gt;T5 -->
<g id="edge4" class="edge">
<title>T3&#45;&gt;T5</title>
<path fill="none" stroke="black" d="M156.43,-362.83C146.25,-352.94 132.48,-339.55 120.97,-328.36"/>
<polygon fill="black" stroke="black" points="123.41,-325.85 113.8,-321.38 118.53,-330.87 123.41,-325.85"/>
</g>
<!-- T3&#45;&gt;T17 -->
<g id="edge5" class="edge">
<title>T3&#45;&gt;T17</title>
<path fill="none" stroke="black" d="M175.36,-360.05C177.39,-352.14 179.86,-342.54 182.14,-333.69"/>
<polygon fill="black" stroke="black" points="185.58,-334.35 184.68,-323.79 178.8,-332.6 185.58,-334.35"/>
</g>
<!-- T4 -->
<g id="node7" class="node">
<title>T4</title>
<ellipse fill="none" stroke="black" cx="243" cy="-378" rx="27" ry="18"/>
<text text-anchor="middle" x="243" y="-374.3" font-family="Ubuntu" font-size="14.00">T4</text>
</g>
<!-- T4&#45;&gt;T5 -->
<g id="edge6" class="edge">
<title>T4&#45;&gt;T5</title>
<path fill="none" stroke="black" d="M221.75,-366.67C197.4,-354.83 157.28,-335.33 129.57,-321.86"/>
<polygon fill="black" stroke="black" points="130.86,-318.6 120.33,-317.37 127.8,-324.89 130.86,-318.6"/>
</g>
<!-- T4&#45;&gt;T17 -->
<g id="edge7" class="edge">
<title>T4&#45;&gt;T17</title>
<path fill="none" stroke="black" d="M231.02,-361.46C224.02,-352.4 215.06,-340.79 207.21,-330.61"/>
<polygon fill="black" stroke="black" points="209.83,-328.27 200.95,-322.49 204.29,-332.55 209.83,-328.27"/>
</g>
<!-- T7 -->
<g id="node10" class="node">
<title>T7</title>
<ellipse fill="none" stroke="black" cx="99" cy="-162" rx="27" ry="18"/>
<text text-anchor="middle" x="99" y="-158.3" font-family="Ubuntu" font-size="14.00">T7</text>
</g>
<!-- T19&#45;&gt;T7 -->
<g id="edge21" class="edge">
<title>T19&#45;&gt;T7</title>
<path fill="none" stroke="black" d="M71.35,-216.76C75.71,-208.28 81.15,-197.71 86.04,-188.2"/>
<polygon fill="black" stroke="black" points="89.23,-189.64 90.7,-179.15 83.01,-186.44 89.23,-189.64"/>
</g>
<!-- T6 -->
<g id="node9" class="node">
<title>T6</title>
<ellipse fill="none" stroke="black" cx="135" cy="-234" rx="27" ry="18"/>
<text text-anchor="middle" x="135" y="-230.3" font-family="Ubuntu" font-size="14.00">T6</text>
</g>
<!-- T6&#45;&gt;T7 -->
<g id="edge9" class="edge">
<title>T6&#45;&gt;T7</title>
<path fill="none" stroke="black" d="M126.65,-216.76C122.29,-208.28 116.85,-197.71 111.96,-188.2"/>
<polygon fill="black" stroke="black" points="114.99,-186.44 107.3,-179.15 108.77,-189.64 114.99,-186.44"/>
</g>
<!-- T18 -->
<g id="node11" class="node">
<title>T18</title>
<ellipse fill="none" stroke="black" cx="171" cy="-162" rx="27" ry="18"/>
<text text-anchor="middle" x="171" y="-158.3" font-family="Ubuntu" font-size="14.00">T18</text>
</g>
<!-- T6&#45;&gt;T18 -->
<g id="edge10" class="edge">
<title>T6&#45;&gt;T18</title>
<path fill="none" stroke="black" d="M143.35,-216.76C147.71,-208.28 153.15,-197.71 158.04,-188.2"/>
<polygon fill="black" stroke="black" points="161.23,-189.64 162.7,-179.15 155.01,-186.44 161.23,-189.64"/>
</g>
<!-- T8 -->
<g id="node12" class="node">
<title>T8</title>
<ellipse fill="none" stroke="black" cx="99" cy="-90" rx="27" ry="18"/>
<text text-anchor="middle" x="99" y="-86.3" font-family="Ubuntu" font-size="14.00">T8</text>
</g>
<!-- T7&#45;&gt;T8 -->
<g id="edge11" class="edge">
<title>T7&#45;&gt;T8</title>
<path fill="none" stroke="black" d="M99,-143.7C99,-135.98 99,-126.71 99,-118.11"/>
<polygon fill="black" stroke="black" points="102.5,-118.1 99,-108.1 95.5,-118.1 102.5,-118.1"/>
</g>
<!-- T16 -->
<g id="node13" class="node">
<title>T16</title>
<ellipse fill="none" stroke="black" cx="171" cy="-90" rx="27" ry="18"/>
<text text-anchor="middle" x="171" y="-86.3" font-family="Ubuntu" font-size="14.00">T16</text>
</g>
<!-- T7&#45;&gt;T16 -->
<g id="edge12" class="edge">
<title>T7&#45;&gt;T16</title>
<path fill="none" stroke="black" d="M113.57,-146.83C123.75,-136.94 137.52,-123.55 149.03,-112.36"/>
<polygon fill="black" stroke="black" points="151.47,-114.87 156.2,-105.38 146.59,-109.85 151.47,-114.87"/>
</g>
<!-- T18&#45;&gt;T8 -->
<g id="edge19" class="edge">
<title>T18&#45;&gt;T8</title>
<path fill="none" stroke="black" d="M156.43,-146.83C146.25,-136.94 132.48,-123.55 120.97,-112.36"/>
<polygon fill="black" stroke="black" points="123.41,-109.85 113.8,-105.38 118.53,-114.87 123.41,-109.85"/>
</g>
<!-- T18&#45;&gt;T16 -->
<g id="edge20" class="edge">
<title>T18&#45;&gt;T16</title>
<path fill="none" stroke="black" d="M171,-143.7C171,-135.98 171,-126.71 171,-118.11"/>
<polygon fill="black" stroke="black" points="174.5,-118.1 171,-108.1 167.5,-118.1 174.5,-118.1"/>
</g>
<!-- T9 -->
<g id="node14" class="node">
<title>T9</title>
<ellipse fill="none" stroke="black" cx="135" cy="-18" rx="27" ry="18"/>
<text text-anchor="middle" x="135" y="-14.3" font-family="Ubuntu" font-size="14.00">T9</text>
</g>
<!-- T8&#45;&gt;T9 -->
<g id="edge13" class="edge">
<title>T8&#45;&gt;T9</title>
<path fill="none" stroke="black" d="M107.35,-72.76C111.71,-64.28 117.15,-53.71 122.04,-44.2"/>
<polygon fill="black" stroke="black" points="125.23,-45.64 126.7,-35.15 119.01,-42.44 125.23,-45.64"/>
</g>
<!-- T16&#45;&gt;T9 -->
<g id="edge17" class="edge">
<title>T16&#45;&gt;T9</title>
<path fill="none" stroke="black" d="M162.65,-72.76C158.29,-64.28 152.85,-53.71 147.96,-44.2"/>
<polygon fill="black" stroke="black" points="150.99,-42.44 143.3,-35.15 144.77,-45.64 150.99,-42.44"/>
</g>
<!-- T10 -->
<g id="node15" class="node">
<title>T10</title>
<ellipse fill="none" stroke="black" cx="387" cy="-378" rx="27" ry="18"/>
<text text-anchor="middle" x="387" y="-374.3" font-family="Ubuntu" font-size="14.00">T10</text>
</g>
<!-- T12 -->
<g id="node16" class="node">
<title>T12</title>
<ellipse fill="none" stroke="black" cx="423" cy="-306" rx="27" ry="18"/>
<text text-anchor="middle" x="423" y="-302.3" font-family="Ubuntu" font-size="14.00">T12</text>
</g>
<!-- T10&#45;&gt;T12 -->
<g id="edge14" class="edge">
<title>T10&#45;&gt;T12</title>
<path fill="none" stroke="black" d="M395.35,-360.76C399.71,-352.28 405.15,-341.71 410.04,-332.2"/>
<polygon fill="black" stroke="black" points="413.23,-333.64 414.7,-323.15 407.01,-330.44 413.23,-333.64"/>
</g>
<!-- T11 -->
<g id="node17" class="node">
<title>T11</title>
<ellipse fill="none" stroke="black" cx="531" cy="-378" rx="27" ry="18"/>
<text text-anchor="middle" x="531" y="-374.3" font-family="Ubuntu" font-size="14.00">T11</text>
</g>
<!-- T13&#45;&gt;T18 -->
<g id="edge15" class="edge">
<title>T13&#45;&gt;T18</title>
<path fill="none" stroke="black" d="M198.65,-216.76C194.29,-208.28 188.85,-197.71 183.96,-188.2"/>
<polygon fill="black" stroke="black" points="186.99,-186.44 179.3,-179.15 180.77,-189.64 186.99,-186.44"/>
</g>
<!-- T14 -->
<g id="node19" class="node">
<title>T14</title>
<ellipse fill="none" stroke="black" cx="603" cy="-378" rx="27" ry="18"/>
<text text-anchor="middle" x="603" y="-374.3" font-family="Ubuntu" font-size="14.00">T14</text>
</g>
<!-- T15 -->
<g id="node20" class="node">
<title>T15</title>
<ellipse fill="none" stroke="black" cx="459" cy="-378" rx="27" ry="18"/>
<text text-anchor="middle" x="459" y="-374.3" font-family="Ubuntu" font-size="14.00">T15</text>
</g>
<!-- T15&#45;&gt;T12 -->
<g id="edge16" class="edge">
<title>T15&#45;&gt;T12</title>
<path fill="none" stroke="black" d="M450.65,-360.76C446.29,-352.28 440.85,-341.71 435.96,-332.2"/>
<polygon fill="black" stroke="black" points="438.99,-330.44 431.3,-323.15 432.77,-333.64 438.99,-330.44"/>
</g>
</g>
</svg>
