<?xml version="1.0" encoding="UTF-8" standalone="no"?>
<!DOCTYPE svg PUBLIC "-//W3C//DTD SVG 1.1//EN"
 "http://www.w3.org/Graphics/SVG/1.1/DTD/svg11.dtd">
<!-- Generated by graphviz version 2.43.0 (0)
 -->
<!-- Title: taskset&#45;1 Pages: 1 -->
<svg width="566pt" height="476pt"
 viewBox="0.00 0.00 566.00 476.00" xmlns="http://www.w3.org/2000/svg" xmlns:xlink="http://www.w3.org/1999/xlink">
<g id="graph0" class="graph" transform="scale(1 1) rotate(0) translate(4 472)">
<title>taskset&#45;1</title>
<polygon fill="white" stroke="transparent" points="-4,4 -4,-472 562,-472 562,4 -4,4"/>
<!-- T0 -->
<g id="node1" class="node">
<title>T0</title>
<ellipse fill="none" stroke="black" cx="243" cy="-450" rx="27" ry="18"/>
<text text-anchor="middle" x="243" y="-446.3" font-family="Ubuntu" font-size="14.00">T0</text>
</g>
<!-- T5 -->
<g id="node2" class="node">
<title>T5</title>
<ellipse fill="none" stroke="black" cx="99" cy="-378" rx="27" ry="18"/>
<text text-anchor="middle" x="99" y="-374.3" font-family="Ubuntu" font-size="14.00">T5</text>
</g>
<!-- T0&#45;&gt;T5 -->
<g id="edge1" class="edge">
<title>T0&#45;&gt;T5</title>
<path fill="none" stroke="black" d="M221.75,-438.67C197.4,-426.83 157.28,-407.33 129.57,-393.86"/>
<polygon fill="black" stroke="black" points="130.86,-390.6 120.33,-389.37 127.8,-396.89 130.86,-390.6"/>
</g>
<!-- T13 -->
<g id="node3" class="node">
<title>T13</title>
<ellipse fill="none" stroke="black" cx="171" cy="-378" rx="27" ry="18"/>
<text text-anchor="middle" x="171" y="-374.3" font-family="Ubuntu" font-size="14.00">T13</text>
</g>
<!-- T0&#45;&gt;T13 -->
<g id="edge2" class="edge">
<title>T0&#45;&gt;T13</title>
<path fill="none" stroke="black" d="M228.43,-434.83C218.25,-424.94 204.48,-411.55 192.97,-400.36"/>
<polygon fill="black" stroke="black" points="195.41,-397.85 185.8,-393.38 190.53,-402.87 195.41,-397.85"/>
</g>
<!-- T6 -->
<g id="node8" class="node">
<title>T6</title>
<ellipse fill="none" stroke="black" cx="99" cy="-306" rx="27" ry="18"/>
<text text-anchor="middle" x="99" y="-302.3" font-family="Ubuntu" font-size="14.00">T6</text>
</g>
<!-- T5&#45;&gt;T6 -->
<g id="edge10" class="edge">
<title>T5&#45;&gt;T6</title>
<path fill="none" stroke="black" d="M99,-359.7C99,-351.98 99,-342.71 99,-334.11"/>
<polygon fill="black" stroke="black" points="102.5,-334.1 99,-324.1 95.5,-334.1 102.5,-334.1"/>
</g>
<!-- T1 -->
<g id="node4" class="node">
<title>T1</title>
<ellipse fill="none" stroke="black" cx="27" cy="-450" rx="27" ry="18"/>
<text text-anchor="middle" x="27" y="-446.3" font-family="Ubuntu" font-size="14.00">T1</text>
</g>
<!-- T1&#45;&gt;T5 -->
<g id="edge3" class="edge">
<title>T1&#45;&gt;T5</title>
<path fill="none" stroke="black" d="M41.57,-434.83C51.75,-424.94 65.52,-411.55 77.03,-400.36"/>
<polygon fill="black" stroke="black" points="79.47,-402.87 84.2,-393.38 74.59,-397.85 79.47,-402.87"/>
</g>
<!-- T1&#45;&gt;T13 -->
<g id="edge4" class="edge">
<title>T1&#45;&gt;T13</title>
<path fill="none" stroke="black" d="M48.25,-438.67C72.6,-426.83 112.72,-407.33 140.43,-393.86"/>
<polygon fill="black" stroke="black" points="142.2,-396.89 149.67,-389.37 139.14,-390.6 142.2,-396.89"/>
</g>
<!-- T2 -->
<g id="node5" class="node">
<title>T2</title>
<ellipse fill="none" stroke="black" cx="99" cy="-450" rx="27" ry="18"/>
<text text-anchor="middle" x="99" y="-446.3" font-family="Ubuntu" font-size="14.00">T2</text>
</g>
<!-- T2&#45;&gt;T5 -->
<g id="edge5" class="edge">
<title>T2&#45;&gt;T5</title>
<path fill="none" stroke="black" d="M99,-431.7C99,-423.98 99,-414.71 99,-406.11"/>
<polygon fill="black" stroke="black" points="102.5,-406.1 99,-396.1 95.5,-406.1 102.5,-406.1"/>
</g>
<!-- T2&#45;&gt;T13 -->
<g id="edge6" class="edge">
<title>T2&#45;&gt;T13</title>
<path fill="none" stroke="black" d="M113.57,-434.83C123.75,-424.94 137.52,-411.55 149.03,-400.36"/>
<polygon fill="black" stroke="black" points="151.47,-402.87 156.2,-393.38 146.59,-397.85 151.47,-402.87"/>
</g>
<!-- T3 -->
<g id="node6" class="node">
<title>T3</title>
<ellipse fill="none" stroke="black" cx="315" cy="-450" rx="27" ry="18"/>
<text text-anchor="middle" x="315" y="-446.3" font-family="Ubuntu" font-size="14.00">T3</text>
</g>
<!-- T3&#45;&gt;T13 -->
<g id="edge7" class="edge">
<title>T3&#45;&gt;T13</title>
<path fill="none" stroke="black" d="M293.75,-438.67C269.4,-426.83 229.28,-407.33 201.57,-393.86"/>
<polygon fill="black" stroke="black" points="202.86,-390.6 192.33,-389.37 199.8,-396.89 202.86,-390.6"/>
</g>
<!-- T4 -->
<g id="node7" class="node">
<title>T4</title>
<ellipse fill="none" stroke="black" cx="171" cy="-450" rx="27" ry="18"/>
<text text-anchor="middle" x="171" y="-446.3" font-family="Ubuntu" font-size="14.00">T4</text>
</g>
<!-- T4&#45;&gt;T5 -->
<g id="edge8" class="edge">
<title>T4&#45;&gt;T5</title>
<path fill="none" stroke="black" d="M156.43,-434.83C146.25,-424.94 132.48,-411.55 120.97,-400.36"/>
<polygon fill="black" stroke="black" points="123.41,-397.85 113.8,-393.38 118.53,-402.87 123.41,-397.85"/>
</g>
<!-- T4&#45;&gt;T13 -->
<g id="edge9" class="edge">
<title>T4&#45;&gt;T13</title>
<path fill="none" stroke="black" d="M171,-431.7C171,-423.98 171,-414.71 171,-406.11"/>
<polygon fill="black" stroke="black" points="174.5,-406.1 171,-396.1 167.5,-406.1 174.5,-406.1"/>
</g>
<!-- T7 -->
<g id="node9" class="node">
<title>T7</title>
<ellipse fill="none" stroke="black" cx="99" cy="-234" rx="27" ry="18"/>
<text text-anchor="middle" x="99" y="-230.3" font-family="Ubuntu" font-size="14.00">T7</text>
</g>
<!-- T6&#45;&gt;T7 -->
<g id="edge11" class="edge">
<title>T6&#45;&gt;T7</title>
<path fill="none" stroke="black" d="M99,-287.7C99,-279.98 99,-270.71 99,-262.11"/>
<polygon fill="black" stroke="black" points="102.5,-262.1 99,-252.1 95.5,-262.1 102.5,-262.1"/>
</g>
<!-- T8 -->
<g id="node10" class="node">
<title>T8</title>
<ellipse fill="none" stroke="black" cx="99" cy="-162" rx="27" ry="18"/>
<text text-anchor="middle" x="99" y="-158.3" font-family="Ubuntu" font-size="14.00">T8</text>
</g>
<!-- T7&#45;&gt;T8 -->
<g id="edge12" class="edge">
<title>T7&#45;&gt;T8</title>
<path fill="none" stroke="black" d="M99,-215.7C99,-207.98 99,-198.71 99,-190.11"/>
<polygon fill="black" stroke="black" points="102.5,-190.1 99,-180.1 95.5,-190.1 102.5,-190.1"/>
</g>
<!-- T9 -->
<g id="node11" class="node">
<title>T9</title>
<ellipse fill="none" stroke="black" cx="99" cy="-90" rx="27" ry="18"/>
<text text-anchor="middle" x="99" y="-86.3" font-family="Ubuntu" font-size="14.00">T9</text>
</g>
<!-- T8&#45;&gt;T9 -->
<g id="edge13" class="edge">
<title>T8&#45;&gt;T9</title>
<path fill="none" stroke="black" d="M99,-143.7C99,-135.98 99,-126.71 99,-118.11"/>
<polygon fill="black" stroke="black" points="102.5,-118.1 99,-108.1 95.5,-118.1 102.5,-118.1"/>
</g>
<!-- T10 -->
<g id="node12" class="node">
<title>T10</title>
<ellipse fill="none" stroke="black" cx="99" cy="-18" rx="27" ry="18"/>
<text text-anchor="middle" x="99" y="-14.3" font-family="Ubuntu" font-size="14.00">T10</text>
</g>
<!-- T9&#45;&gt;T10 -->
<g id="edge14" class="edge">
<title>T9&#45;&gt;T10</title>
<path fill="none" stroke="black" d="M99,-71.7C99,-63.98 99,-54.71 99,-46.11"/>
<polygon fill="black" stroke="black" points="102.5,-46.1 99,-36.1 95.5,-46.1 102.5,-46.1"/>
</g>
<!-- T11 -->
<g id="node13" class="node">
<title>T11</title>
<ellipse fill="none" stroke="black" cx="387" cy="-450" rx="27" ry="18"/>
<text text-anchor="middle" x="387" y="-446.3" font-family="Ubuntu" font-size="14.00">T11</text>
</g>
<!-- T12 -->
<g id="node14" class="node">
<title>T12</title>
<ellipse fill="none" stroke="black" cx="459" cy="-450" rx="27" ry="18"/>
<text text-anchor="middle" x="459" y="-446.3" font-family="Ubuntu" font-size="14.00">T12</text>
</g>
<!-- T14 -->
<g id="node15" class="node">
<title>T14</title>
<ellipse fill="none" stroke="black" cx="531" cy="-450" rx="27" ry="18"/>
<text text-anchor="middle" x="531" y="-446.3" font-family="Ubuntu" font-size="14.00">T14</text>
</g>
</g>
</svg>
