<?xml version="1.0" encoding="UTF-8" standalone="no"?>
<!DOCTYPE svg PUBLIC "-//W3C//DTD SVG 1.1//EN"
 "http://www.w3.org/Graphics/SVG/1.1/DTD/svg11.dtd">
<!-- Generated by graphviz version 2.43.0 (0)
 -->
<!-- Title: taskset&#45;0 Pages: 1 -->
<svg width="350pt" height="548pt"
 viewBox="0.00 0.00 350.00 548.00" xmlns="http://www.w3.org/2000/svg" xmlns:xlink="http://www.w3.org/1999/xlink">
<g id="graph0" class="graph" transform="scale(1 1) rotate(0) translate(4 544)">
<title>taskset&#45;0</title>
<polygon fill="white" stroke="transparent" points="-4,4 -4,-544 346,-544 346,4 -4,4"/>
<!-- T0 -->
<g id="node1" class="node">
<title>T0</title>
<ellipse fill="none" stroke="black" cx="27" cy="-522" rx="27" ry="18"/>
<text text-anchor="middle" x="27" y="-518.3" font-family="Ubuntu" font-size="14.00">T0</text>
</g>
<!-- T14 -->
<g id="node2" class="node">
<title>T14</title>
<ellipse fill="none" stroke="black" cx="63" cy="-450" rx="27" ry="18"/>
<text text-anchor="middle" x="63" y="-446.3" font-family="Ubuntu" font-size="14.00">T14</text>
</g>
<!-- T0&#45;&gt;T14 -->
<g id="edge1" class="edge">
<title>T0&#45;&gt;T14</title>
<path fill="none" stroke="black" d="M35.35,-504.76C39.71,-496.28 45.15,-485.71 50.04,-476.2"/>
<polygon fill="black" stroke="black" points="53.23,-477.64 54.7,-467.15 47.01,-474.44 53.23,-477.64"/>
</g>
<!-- T1 -->
<g id="node3" class="node">
<title>T1</title>
<ellipse fill="none" stroke="black" cx="171" cy="-522" rx="27" ry="18"/>
<text text-anchor="middle" x="171" y="-518.3" font-family="Ubuntu" font-size="14.00">T1</text>
</g>
<!-- T5 -->
<g id="node4" class="node">
<title>T5</title>
<ellipse fill="none" stroke="black" cx="171" cy="-450" rx="27" ry="18"/>
<text text-anchor="middle" x="171" y="-446.3" font-family="Ubuntu" font-size="14.00">T5</text>
</g>
<!-- T1&#45;&gt;T5 -->
<g id="edge2" class="edge">
<title>T1&#45;&gt;T5</title>
<path fill="none" stroke="black" d="M171,-503.7C171,-495.98 171,-486.71 171,-478.11"/>
<polygon fill="black" stroke="black" points="174.5,-478.1 171,-468.1 167.5,-478.1 174.5,-478.1"/>
</g>
<!-- T6 -->
<g id="node8" class="node">
<title>T6</title>
<ellipse fill="none" stroke="black" cx="171" cy="-378" rx="27" ry="18"/>
<text text-anchor="middle" x="171" y="-374.3" font-family="Ubuntu" font-size="14.00">T6</text>
</g>
<!-- T5&#45;&gt;T6 -->
<g id="edge6" class="edge">
<title>T5&#45;&gt;T6</title>
<path fill="none" stroke="black" d="M171,-431.7C171,-423.98 171,-414.71 171,-406.11"/>
<polygon fill="black" stroke="black" points="174.5,-406.1 171,-396.1 167.5,-406.1 174.5,-406.1"/>
</g>
<!-- T2 -->
<g id="node5" class="node">
<title>T2</title>
<ellipse fill="none" stroke="black" cx="243" cy="-522" rx="27" ry="18"/>
<text text-anchor="middle" x="243" y="-518.3" font-family="Ubuntu" font-size="14.00">T2</text>
</g>
<!-- T2&#45;&gt;T5 -->
<g id="edge3" class="edge">
<title>T2&#45;&gt;T5</title>
<path fill="none" stroke="black" d="M228.43,-506.83C218.25,-496.94 204.48,-483.55 192.97,-472.36"/>
<polygon fill="black" stroke="black" points="195.41,-469.85 185.8,-465.38 190.53,-474.87 195.41,-469.85"/>
</g>
<!-- T3 -->
<g id="node6" class="node">
<title>T3</title>
<ellipse fill="none" stroke="black" cx="99" cy="-522" rx="27" ry="18"/>
<text text-anchor="middle" x="99" y="-518.3" font-family="Ubuntu" font-size="14.00">T3</text>
</g>
<!-- T3&#45;&gt;T14 -->
<g id="edge5" class="edge">
<title>T3&#45;&gt;T14</title>
<path fill="none" stroke="black" d="M90.65,-504.76C86.29,-496.28 80.85,-485.71 75.96,-476.2"/>
<polygon fill="black" stroke="black" points="78.99,-474.44 71.3,-467.15 72.77,-477.64 78.99,-474.44"/>
</g>
<!-- T3&#45;&gt;T5 -->
<g id="edge4" class="edge">
<title>T3&#45;&gt;T5</title>
<path fill="none" stroke="black" d="M113.57,-506.83C123.75,-496.94 137.52,-483.55 149.03,-472.36"/>
<polygon fill="black" stroke="black" points="151.47,-474.87 156.2,-465.38 146.59,-469.85 151.47,-474.87"/>
</g>
<!-- T4 -->
<g id="node7" class="node">
<title>T4</title>
<ellipse fill="none" stroke="black" cx="315" cy="-522" rx="27" ry="18"/>
<text text-anchor="middle" x="315" y="-518.3" font-family="Ubuntu" font-size="14.00">T4</text>
</g>
<!-- T7 -->
<g id="node9" class="node">
<title>T7</title>
<ellipse fill="none" stroke="black" cx="99" cy="-306" rx="27" ry="18"/>
<text text-anchor="middle" x="99" y="-302.3" font-family="Ubuntu" font-size="14.00">T7</text>
</g>
<!-- T6&#45;&gt;T7 -->
<g id="edge7" class="edge">
<title>T6&#45;&gt;T7</title>
<path fill="none" stroke="black" d="M156.43,-362.83C146.25,-352.94 132.48,-339.55 120.97,-328.36"/>
<polygon fill="black" stroke="black" points="123.41,-325.85 113.8,-321.38 118.53,-330.87 123.41,-325.85"/>
</g>
<!-- T12 -->
<g id="node10" class="node">
<title>T12</title>
<ellipse fill="none" stroke="black" cx="171" cy="-306" rx="27" ry="18"/>
<text text-anchor="middle" x="171" y="-302.3" font-family="Ubuntu" font-size="14.00">T12</text>
</g>
<!-- T6&#45;&gt;T12 -->
<g id="edge8" class="edge">
<title>T6&#45;&gt;T12</title>
<path fill="none" stroke="black" d="M171,-359.7C171,-351.98 171,-342.71 171,-334.11"/>
<polygon fill="black" stroke="black" points="174.5,-334.1 171,-324.1 167.5,-334.1 174.5,-334.1"/>
</g>
<!-- T13 -->
<g id="node11" class="node">
<title>T13</title>
<ellipse fill="none" stroke="black" cx="243" cy="-306" rx="27" ry="18"/>
<text text-anchor="middle" x="243" y="-302.3" font-family="Ubuntu" font-size="14.00">T13</text>
</g>
<!-- T6&#45;&gt;T13 -->
<g id="edge9" class="edge">
<title>T6&#45;&gt;T13</title>
<path fill="none" stroke="black" d="M185.57,-362.83C195.75,-352.94 209.52,-339.55 221.03,-328.36"/>
<polygon fill="black" stroke="black" points="223.47,-330.87 228.2,-321.38 218.59,-325.85 223.47,-330.87"/>
</g>
<!-- T8 -->
<g id="node12" class="node">
<title>T8</title>
<ellipse fill="none" stroke="black" cx="171" cy="-234" rx="27" ry="18"/>
<text text-anchor="middle" x="171" y="-230.3" font-family="Ubuntu" font-size="14.00">T8</text>
</g>
<!-- T7&#45;&gt;T8 -->
<g id="edge10" class="edge">
<title>T7&#45;&gt;T8</title>
<path fill="none" stroke="black" d="M113.57,-290.83C123.75,-280.94 137.52,-267.55 149.03,-256.36"/>
<polygon fill="black" stroke="black" points="151.47,-258.87 156.2,-249.38 146.59,-253.85 151.47,-258.87"/>
</g>
<!-- T12&#45;&gt;T8 -->
<g id="edge14" class="edge">
<title>T12&#45;&gt;T8</title>
<path fill="none" stroke="black" d="M171,-287.7C171,-279.98 171,-270.71 171,-262.11"/>
<polygon fill="black" stroke="black" points="174.5,-262.1 171,-252.1 167.5,-262.1 174.5,-262.1"/>
</g>
<!-- T13&#45;&gt;T8 -->
<g id="edge15" class="edge">
<title>T13&#45;&gt;T8</title>
<path fill="none" stroke="black" d="M228.43,-290.83C218.25,-280.94 204.48,-267.55 192.97,-256.36"/>
<polygon fill="black" stroke="black" points="195.41,-253.85 185.8,-249.38 190.53,-258.87 195.41,-253.85"/>
</g>
<!-- T9 -->
<g id="node13" class="node">
<title>T9</title>
<ellipse fill="none" stroke="black" cx="171" cy="-162" rx="27" ry="18"/>
<text text-anchor="middle" x="171" y="-158.3" font-family="Ubuntu" font-size="14.00">T9</text>
</g>
<!-- T8&#45;&gt;T9 -->
<g id="edge11" class="edge">
<title>T8&#45;&gt;T9</title>
<path fill="none" stroke="black" d="M171,-215.7C171,-207.98 171,-198.71 171,-190.11"/>
<polygon fill="black" stroke="black" points="174.5,-190.1 171,-180.1 167.5,-190.1 174.5,-190.1"/>
</g>
<!-- T10 -->
<g id="node14" class="node">
<title>T10</title>
<ellipse fill="none" stroke="black" cx="171" cy="-90" rx="27" ry="18"/>
<text text-anchor="middle" x="171" y="-86.3" font-family="Ubuntu" font-size="14.00">T10</text>
</g>
<!-- T9&#45;&gt;T10 -->
<g id="edge12" class="edge">
<title>T9&#45;&gt;T10</title>
<path fill="none" stroke="black" d="M171,-143.7C171,-135.98 171,-126.71 171,-118.11"/>
<polygon fill="black" stroke="black" points="174.5,-118.1 171,-108.1 167.5,-118.1 174.5,-118.1"/>
</g>
<!-- T11 -->
<g id="node15" class="node">
<title>T11</title>
<ellipse fill="none" stroke="black" cx="171" cy="-18" rx="27" ry="18"/>
<text text-anchor="middle" x="171" y="-14.3" font-family="Ubuntu" font-size="14.00">T11</text>
</g>
<!-- T10&#45;&gt;T11 -->
<g id="edge13" class="edge">
<title>T10&#45;&gt;T11</title>
<path fill="none" stroke="black" d="M171,-71.7C171,-63.98 171,-54.71 171,-46.11"/>
<polygon fill="black" stroke="black" points="174.5,-46.1 171,-36.1 167.5,-46.1 174.5,-46.1"/>
</g>
</g>
</svg>
